<svg width="35" height="40" viewBox="0 0 35 40" fill="none" xmlns="http://www.w3.org/2000/svg">
<path d="M25.096 12.1095L26.6906 17.5623C26.796 17.9224 27.0776 18.204 27.4377 18.3094L32.8905 19.904C32.925 19.9141 32.9381 19.9284 32.945 19.9382C32.9543 19.9516 32.9624 19.9731 32.9624 20C32.9624 20.0269 32.9543 20.0484 32.945 20.0618C32.9381 20.0716 32.925 20.0859 32.8905 20.096L27.4377 21.6906C27.0776 21.796 26.796 22.0776 26.6906 22.4377L25.096 27.8905C25.0859 27.925 25.0716 27.9381 25.0618 27.945C25.0484 27.9543 25.0269 27.9624 25 27.9624C24.9731 27.9624 24.9516 27.9543 24.9382 27.945C24.9284 27.9381 24.9141 27.925 24.904 27.8905L23.3094 22.4377C23.204 22.0776 22.9224 21.796 22.5623 21.6906L17.1095 20.096C17.075 20.0859 17.0619 20.0716 17.055 20.0618C17.0457 20.0484 17.0376 20.0269 17.0376 20C17.0376 19.9731 17.0457 19.9516 17.055 19.9382C17.0619 19.9284 17.075 19.9141 17.1095 19.904L22.5623 18.3094C22.9224 18.204 23.204 17.9224 23.3094 17.5623L24.904 12.1095C24.9141 12.075 24.9284 12.0619 24.9382 12.055C24.9516 12.0457 24.9731 12.0376 25 12.0376C25.0269 12.0376 25.0484 12.0457 25.0618 12.055C25.0716 12.0619 25.0859 12.075 25.096 12.1095Z" stroke="#F1E9D7"/>
<path d="M10.096 2.10952L11.6906 7.56234C11.796 7.92245 12.0776 8.20404 12.4377 8.30936L17.8905 9.90402C17.925 9.91412 17.9381 9.92837 17.945 9.93822C17.9543 9.95162 17.9624 9.97307 17.9624 10C17.9624 10.0269 17.9543 10.0484 17.945 10.0618C17.9381 10.0716 17.925 10.0859 17.8905 10.096L12.4377 11.6906C12.0776 11.796 11.796 12.0776 11.6906 12.4377L10.096 17.8905C10.0859 17.925 10.0716 17.9381 10.0618 17.945C10.0484 17.9543 10.0269 17.9624 10 17.9624C9.97307 17.9624 9.95162 17.9543 9.93822 17.945C9.92837 17.9381 9.91412 17.925 9.90402 17.8905L8.30936 12.4377C8.20404 12.0776 7.92245 11.796 7.56234 11.6906L2.10952 10.096C2.07499 10.0859 2.06194 10.0716 2.05504 10.0618C2.04566 10.0484 2.03759 10.0269 2.03759 10C2.03759 9.97307 2.04566 9.95162 2.05504 9.93822C2.06194 9.92837 2.07499 9.91412 2.10952 9.90402L7.56234 8.30936C7.92245 8.20404 8.20404 7.92245 8.30936 7.56234L9.90402 2.10952C9.91412 2.07499 9.92837 2.06194 9.93822 2.05504C9.95162 2.04566 9.97307 2.03759 10 2.03759C10.0269 2.03759 10.0484 2.04566 10.0618 2.05504C10.0716 2.06194 10.0859 2.07499 10.096 2.10952Z" stroke="#F1E9D7"/>
<path d="M10.096 22.1095L11.6906 27.5623C11.796 27.9224 12.0776 28.204 12.4377 28.3094L17.8905 29.904C17.925 29.9141 17.9381 29.9284 17.945 29.9382C17.9543 29.9516 17.9624 29.9731 17.9624 30C17.9624 30.0269 17.9543 30.0484 17.945 30.0618C17.9381 30.0716 17.925 30.0859 17.8905 30.096L12.4377 31.6906C12.0776 31.796 11.796 32.0776 11.6906 32.4377L10.096 37.8905C10.0859 37.925 10.0716 37.9381 10.0618 37.945C10.0484 37.9543 10.0269 37.9624 10 37.9624C9.97307 37.9624 9.95162 37.9543 9.93822 37.945C9.92837 37.9381 9.91412 37.925 9.90402 37.8905L8.30936 32.4377C8.20404 32.0776 7.92245 31.796 7.56234 31.6906L2.10952 30.096C2.07499 30.0859 2.06194 30.0716 2.05504 30.0618C2.04566 30.0484 2.03759 30.0269 2.03759 30C2.03759 29.9731 2.04566 29.9516 2.05504 29.9382C2.06194 29.9284 2.07499 29.9141 2.10952 29.904L7.56234 28.3094C7.92245 28.204 8.20404 27.9224 8.30936 27.5623L9.90402 22.1095C9.91412 22.075 9.92837 22.0619 9.93822 22.055C9.95162 22.0457 9.97307 22.0376 10 22.0376C10.0269 22.0376 10.0484 22.0457 10.0618 22.055C10.0716 22.0619 10.0859 22.075 10.096 22.1095Z" stroke="#F1E9D7"/>
</svg>
